<?xml version="1.0" encoding="iso-8859-1"?>
<!-- Generator: Adobe Illustrator 19.0.0, SVG Export Plug-In . SVG Version: 6.00 Build 0)  -->
<svg version="1.1" id="Capa_1" xmlns="http://www.w3.org/2000/svg" xmlns:xlink="http://www.w3.org/1999/xlink" x="0px" y="0px"
	 viewBox="0 0 512.005 512.005" style="enable-background:new 0 0 512.005 512.005;" xml:space="preserve">
<g>
	<path style="fill:#E64C3C;" d="M502.78,308.766l-135.17,34.349c-5.921,1.645-9.793,7.318-9.169,13.43l9.827,114.76
		c0.618,4.676-1.537,9.284-5.521,11.808c-3.984,2.524-9.072,2.502-13.035-0.055l-91.878-62.461
		c-4.557-3.121-10.682-2.6-14.647,1.246l-91.226,86.824c-3.711,3.42-9.161,4.164-13.653,1.863
		c-4.492-2.301-7.072-7.159-6.463-12.169l10.105-143.506c0.443-5.373-2.55-10.442-7.469-12.649L7.501,287.843
		C2.929,285.737,0,281.162,0,276.127c0-5.035,2.929-9.609,7.501-11.716l126.847-54.306c4.985-2.239,7.984-7.41,7.453-12.849
		l-9.959-116.308c-0.618-4.676,1.537-9.284,5.521-11.808s9.072-2.502,13.035,0.055l91.4,62.137c4.782,3.27,11.242,2.522,15.15-1.754
		L374.61,3.818c3.819-3.931,9.803-4.804,14.586-2.128c4.783,2.676,7.17,8.233,5.818,13.544l-35.647,181.871
		c-1.135,5.507,1.442,11.113,6.361,13.838l139.66,74.238c4.53,2.518,7.107,7.509,6.538,12.66
		C511.357,302.992,507.751,307.299,502.78,308.766z"/>
	<path style="fill:#F18D46;" d="M205.333,341.853c1.691-19.483-8.995-37.94-26.734-46.174l-36.03-15.748l35.934-15.712
		c18.001-8.314,28.722-27.155,26.675-46.877l-2.675-31.895l23.519,16.331c6.883,4.827,15.083,7.425,23.49,7.442
		c11.758-0.105,22.934-5.127,30.819-13.85l26.294-28.693l-8.916,46.429c-4.074,19.98,5.097,40.325,22.766,50.504l41.568,22.563
		l-32.757,8.503c-21.429,6.154-35.295,26.865-32.82,49.022l2.574,30.712l-23.875-16.572c-6.882-4.83-15.082-7.427-23.49-7.442
		c-10.863,0.05-21.275,4.351-29.007,11.982l-20.1,19.536L205.333,341.853z"/>
</g>
<g>
</g>
<g>
</g>
<g>
</g>
<g>
</g>
<g>
</g>
<g>
</g>
<g>
</g>
<g>
</g>
<g>
</g>
<g>
</g>
<g>
</g>
<g>
</g>
<g>
</g>
<g>
</g>
<g>
</g>
</svg>
