<svg id="Capa_1" enable-background="new 0 0 512 512" height="512" viewBox="0 0 512 512" width="512" xmlns="http://www.w3.org/2000/svg"><g><path d="m235.998 54.499c-24.813 0-45 20.187-45 45v30c0 8.284 6.716 15 15 15h60c8.284 0 15-6.716 15-15v-30c0-24.813-20.187-45-45-45z" fill="#ff767c"/><path d="m235.998 54.499v90h30c8.284 0 15-6.716 15-15v-30c0-24.813-20.187-45-45-45z" fill="#d55954"/><path d="m503.068 227.919-57.484-27.585s-17.82-10.831-19.911-10.831h-69.673v-60.003c0-8.284-6.717-15-15-15h-295.998c-6.359 0-12.028 4.01-14.145 10.007l-30.002 85.003c-.566 1.604-.855 3.292-.855 4.992v46.926l10.001 13.572-10.001 16.429v106.073c0 8.284 6.716 15 15 15h482c8.283 0 15-6.716 15-15v-45.003l-10.001-17.497 10.001-12.503v-31.07l-10.001-16.428 10.001-13.572v-19.793c0-5.937-3.502-11.315-8.932-13.717z" fill="#6baeff"/><path d="m512 241.636c0-5.937-3.502-11.315-8.932-13.717l-57.484-27.585s-17.82-10.831-19.911-10.831h-69.673v-60.003c0-8.284-15-15-15-15h-105.002v298.003h261.002c8.283 0 15-6.716 15-15v-45.003l-10.001-17.497 10.001-12.504v-31.07l-10.001-16.428 10.001-13.572z" fill="#4b8eef"/><path d="m445.584 200.333-36.339-77.222c-2.474-5.258-7.763-8.613-13.572-8.613h-54.673v80.168c0 3.13 2.537 5.667 5.667 5.667z" fill="#cbdbf5"/><path d="m482 322.499c-8.284 0-15 6.716-15 15s6.716 15 15 15h30v-30z" fill="#ffb22d"/><path d="m190.998 261.429h-190.998v30h190.998c8.284 0 15-6.716 15-15s-6.716-15-15-15z" fill="#f0f0f0"/><path d="m280.998 261.429c-8.284 0-15 6.716-15 15s6.716 15 15 15h231.002v-30z" fill="#cbdbf5"/><circle cx="125.002" cy="397.501" fill="#505a6a" r="60"/><circle cx="365.008" cy="397.501" fill="#3d4757" r="60"/><path d="m294.898 222.062c3.04-7.498-.414-16.056-7.808-19.342l-45-20.001c-3.879-1.724-8.308-1.724-12.186 0l-45 20.001c-7.394 3.286-10.848 11.844-7.809 19.342l8.718 21.507c-6.379 9.711-9.816 21.085-9.816 32.859 0 33.084 26.916 60 60 60s60-26.916 60-60c0-11.775-3.438-23.148-9.817-32.859z" fill="#ffdc3c"/><path d="m294.898 222.062c3.04-7.498-.414-16.056-7.808-19.342l-45-20.001c-1.94-.862-4.017-1.293-6.093-1.293v155.003c33.084 0 60-26.916 60-60 0-11.775-3.438-23.148-9.817-32.859z" fill="#ffb22d"/></g></svg>