<?xml version="1.0" encoding="iso-8859-1"?>
<!-- Generator: Adobe Illustrator 19.0.0, SVG Export Plug-In . SVG Version: 6.00 Build 0)  -->
<svg version="1.1" id="Capa_1" xmlns="http://www.w3.org/2000/svg" xmlns:xlink="http://www.w3.org/1999/xlink" x="0px" y="0px"
	 viewBox="0 0 512 512" style="enable-background:new 0 0 512 512;" xml:space="preserve">
<path style="fill:#FF5842;" d="M391,285v75l-33.6,25.199H166.901L121,360v-75c0-74.401,60.601-135,135-135S391,210.599,391,285z"/>
<path style="fill:#FD3018;" d="M391,285v75l-33.6,25.199H256V150C330.399,150,391,210.599,391,285z"/>
<path style="fill:#FEA832;" d="M256,210c-24.901,0-45,20.099-45,45c0,24.899,20.099,45,45,45s45-20.101,45-45
	C301,230.099,280.901,210,256,210z"/>
<path style="fill:#FF873C;" d="M256,300v-90c24.901,0,45,20.099,45,45C301,279.899,280.901,300,256,300z"/>
<path style="fill:#FEA832;" d="M256,270c-24.901,0-45,20.099-45,45v60c0,8.399,6.599,15,15,15h60c8.401,0,15-6.601,15-15v-60
	C301,290.099,280.901,270,256,270z"/>
<path style="fill:#FF873C;" d="M301,315v60c0,8.399-6.599,15-15,15h-30V270C280.901,270,301,290.099,301,315z"/>
<path style="fill:#E61E14;" d="M391,360v77c0,8.399-6.599,15-15,15H136c-8.401,0-15-6.601-15-15v-77H391z"/>
<g>
	<path style="fill:#FEDB41;" d="M271,15v60c0,8.399-6.599,15-15,15s-15-6.601-15-15V15c0-8.401,6.599-15,15-15S271,6.599,271,15z"/>
	<path style="fill:#FEDB41;" d="M75,240H15c-8.291,0-15-6.709-15-15s6.709-15,15-15h60c8.291,0,15,6.709,15,15S83.291,240,75,240z"
		/>
</g>
<g>
	<path style="fill:#FCBF29;" d="M497,240h-60c-8.291,0-15-6.709-15-15s6.709-15,15-15h60c8.291,0,15,6.709,15,15
		S505.291,240,497,240z"/>
	<path style="fill:#FCBF29;" d="M372.675,108.325c-5.859-5.859-5.859-15.352,0-21.211l42.422-42.422
		c5.859-5.859,15.352-5.859,21.211,0s5.859,15.352,0,21.211l-42.422,42.422C388.026,114.185,378.534,114.185,372.675,108.325z"/>
</g>
<path style="fill:#FEDB41;" d="M118.114,108.325L75.692,65.903c-5.859-5.859-5.859-15.352,0-21.211s15.352-5.859,21.211,0
	l42.422,42.422c5.859,5.859,5.859,15.352,0,21.211C133.466,114.185,123.974,114.185,118.114,108.325z"/>
<path style="fill:#FCBF29;" d="M256,90V0c8.401,0,15,6.599,15,15v60C271,83.399,264.401,90,256,90z"/>
<path style="fill:#B80000;" d="M391,360v77c0,8.399-6.599,15-15,15H256v-92H391z"/>
<path style="fill:#555A66;" d="M376,422H136c-41.4,0-75,33.6-75,75c0,8.399,6.599,15,15,15h360c8.401,0,15-6.601,15-15
	C451,455.6,417.4,422,376,422z"/>
<path style="fill:#3C3A41;" d="M451,497c0,8.399-6.599,15-15,15H256v-90h120C417.4,422,451,455.6,451,497z"/>
<g>
</g>
<g>
</g>
<g>
</g>
<g>
</g>
<g>
</g>
<g>
</g>
<g>
</g>
<g>
</g>
<g>
</g>
<g>
</g>
<g>
</g>
<g>
</g>
<g>
</g>
<g>
</g>
<g>
</g>
</svg>
